<svg width="292" height="292" viewBox="0 0 292 292" fill="none" xmlns="http://www.w3.org/2000/svg">
<path d="M291.71 144.474C292.499 163.301 290.968 182.154 287.149 200.607C276.718 249.851 245.134 281.532 191.33 288.422C155.836 293.646 119.697 292.529 84.5941 285.123C68.9675 282.023 54.3603 275.077 42.094 264.911C29.8278 254.746 20.2896 241.682 14.3426 226.903C5.35328 205.079 0.880606 181.659 1.19474 158.059C0.187365 135.544 1.71717 112.988 5.75526 90.8151C16.1377 44.7247 39.377 19.1081 86.5348 7.75533C125.957 -1.80223 167.093 -1.80223 206.515 7.75533C253.77 19.1081 277.155 44.8217 287.149 90.7666C291.112 108.377 292.646 126.447 291.71 144.474Z" fill="#5200FF"/>
<path d="M182.208 167.646C182.208 192.952 161.693 213.466 136.387 213.466C111.081 213.466 90.5664 192.952 90.5664 167.646C90.5664 142.34 111.081 121.825 136.387 121.825" stroke="white" stroke-width="40.1936"/>
<path d="M162.115 121.812H136.291" stroke="white" stroke-width="40.1936"/>
<path fill-rule="evenodd" clip-rule="evenodd" d="M202.304 101.715V61.9021H162.111V101.715H202.304ZM202.304 141.909H162.111V167.847H202.304V141.909Z" fill="white"/>
</svg>
